***************************************************************

[IMG]http://www.torrentforce.org/imghost/3/greyshadow_tfbanner.png[/IMG]

***************************************************************

[IMG]http://www.torrentforce.org/imghost/4/greyshadow_cars2.jpg[/IMG]

***************************************************************

FILM TITLE: Cars 2 (2011)

***************************************************************

Genre: Animation | Adventure | Comedy   

Release: 22 July 2011 (UK) 

Director: John Lasseter, Brad Lewis

Writer: Ben Queen (screenplay), John Lasseter (story)

Stars: Owen Wilson, Larry the Cable Guy and Michael Caine

Country: USA 

Language: English | Japanese | Italian | French

Plot:
Star race car Lightning McQueen and his pal Mater head overseas to 
compete in the World Grand Prix race. But the road to the championship 
becomes rocky as Mater gets caught up in an intriguing adventure of 
his own: international espionage.

IMDB Rating: 6.5/10 from 13,472 users   Metascore: 57/100
 
http://www.imdb.com/title/tt1216475/ 

****************************************************************

[IMG]http://www.torrentforce.org/imghost/4/greyshadow_cars2x2641.png[/IMG]
[IMG]http://www.torrentforce.org/imghost/4/greyshadow_cars2x2642.png[/IMG]
[IMG]http://www.torrentforce.org/imghost/4/greyshadow_cars2x2643.png[/IMG]
[IMG]http://www.torrentforce.org/imghost/4/greyshadow_cars2x2644.png[/IMG]

****************************************************************

[IMG]http://www.torrentforce.org/imghost/2/greyshadow_mediainfo.png[/IMG]
General
Complete name                    : Cars 2 2011 720p BDRip x264 aac (mp4) [TFRG].mp4
Format                           : MPEG-4
Format profile                   : Base Media
Codec ID                         : isom
File size                        : 2.99 GiB
Duration                         : 1h 47mn
Overall bit rate                 : 3996 Kbps
Encoded date                     : UTC 2011-10-18 12:41:30
Tagged date                      : UTC 2011-10-18 12:41:30

Video
ID                               : 1
Format                           : AVC
Format/Info                      : Advanced Video Codec
Format profile                   : High@L4.1
Format settings, CABAC           : Yes
Format settings, ReFrames        : 12 frames
Codec ID                         : avc1
Codec ID/Info                    : Advanced Video Coding
Duration                         : 1h 47mn
Bit rate                         : 3200 Kbps
Maximum bit rate                 : 23.9 Mbps
Width                            : 1280 pixels
Height                           : 528 pixels
Display aspect ratio             : 2.40:1
Frame rate mode                  : Constant
Frame rate                       : 23.976 fps
Color space                      : YUV
Chroma subsampling               : 4:2:0
Bit depth                        : 8 bits
Scan type                        : Progressive
Bits/(Pixel*Frame)               : 0.197
Stream size                      : 2.39 GiB (80%)
Title                            : Cars 2 AVC MPEG4 Video
Writing library                  : x264 core 118 r2085 8a62835
Encoded date                     : UTC 2011-10-17 10:50:25
Tagged date                      : UTC 2011-10-18 12:42:34
Color primaries                  : BT.709-5, BT.1361, IEC 61966-2-4, SMPTE RP177
Transfer characteristics         : BT.709-5, BT.1361
Matrix coefficients              : BT.709-5, BT.1361, IEC 61966-2-4 709, SMPTE RP177

Audio
ID                               : 2
Format                           : AAC
Format/Info                      : Advanced Audio Codec
Format profile                   : LC
Codec ID                         : 40
Duration                         : 1h 47mn
Bit rate mode                    : Variable
Bit rate                         : 794 Kbps
Maximum bit rate                 : 872 Kbps
Channel(s)                       : 6 channels
Channel positions                : Front: L C R, Side: L R, LFE
Sampling rate                    : 48.0 KHz
Compression mode                 : Lossy
Stream size                      : 608 MiB (20%)
Title                            : Cars 2 AAC 5.1 Audio
Language                         : English
Encoded date                     : UTC 2011-10-18 12:42:20
Tagged date                      : UTC 2011-10-18 12:42:34

****************************************************************

Video Source: Cars 2 2011 BluRay 1080p AVC DTS-HD MA7.1-CHDBits (43.4GB)

Thanks: (chdbits.org)

****************************************************************

I provide a small sample, so please download this to check your 
compatibility first if you are unsure.

****************************************************************

7th October 2011

I am re-introducing my warning to all downloaders, please please
please use a proxy or vpn service, it is the only secure way to
keep your own ip address from being seen during downloading or
uploading/seeding, this WILL stop isp letters, as for advice to 
which one then thats simple, vpntunnel.se server based in Sweden 
is the right one to use, I have cancelled my vpn and transfered 
to a Swedish one already !!! enough said. 

****************************************************************

A big thanks to all the sites out there who care and share and
who make it possible for you to download this torrent for free.

Greetz to Westy, Ripwyn, mustang, noir, Blackjesus, MXMG, The Stig 
and all the other outstanding members of our community of file 
sharers and a special mention to our friends at 1337x.

****************************************************************